<svg width="1200" height="630" viewBox="0 0 1200 630" xmlns="http://www.w3.org/2000/svg">
  <defs>
    <linearGradient id="bg" x1="0" y1="0" x2="1" y2="1">
      <stop offset="0%" stop-color="#eff6ff"/>
      <stop offset="100%" stop-color="#dbeafe"/>
    </linearGradient>
    <linearGradient id="blue" x1="0" y1="0" x2="1" y2="1">
      <stop offset="0%" stop-color="#2563eb"/>
      <stop offset="100%" stop-color="#1d4ed8"/>
    </linearGradient>
  </defs>

  <rect width="1200" height="630" rx="48" fill="url(#bg)"/>
  <rect x="70" y="70" width="1060" height="490" rx="40" fill="white" opacity="0.95"/>

  <text x="110" y="165" font-size="34" font-weight="800" fill="#2563eb">LOTTO STAT PICKER</text>
  <text x="110" y="260" font-size="74" font-weight="900" fill="#0f172a">로또 통계형 번호 추첨기</text>
  <text x="110" y="335" font-size="34" font-weight="700" fill="#475569">역대 당첨번호 기반 추천번호 생성 웹앱</text>

  <g transform="translate(110 410)">
    <circle cx="35" cy="35" r="35" fill="#f59e0b"/>
    <circle cx="125" cy="35" r="35" fill="#3b82f6"/>
    <circle cx="215" cy="35" r="35" fill="#3b82f6"/>
    <circle cx="305" cy="35" r="35" fill="#64748b"/>
    <circle cx="395" cy="35" r="35" fill="#22c55e"/>
    <circle cx="485" cy="35" r="35" fill="#22c55e"/>

    <text x="35" y="47" font-size="28" font-weight="900" text-anchor="middle" fill="white">01</text>
    <text x="125" y="47" font-size="28" font-weight="900" text-anchor="middle" fill="white">14</text>
    <text x="215" y="47" font-size="28" font-weight="900" text-anchor="middle" fill="white">16</text>
    <text x="305" y="47" font-size="28" font-weight="900" text-anchor="middle" fill="white">34</text>
    <text x="395" y="47" font-size="28" font-weight="900" text-anchor="middle" fill="white">41</text>
    <text x="485" y="47" font-size="28" font-weight="900" text-anchor="middle" fill="white">44</text>
  </g>

  <rect x="790" y="390" width="260" height="70" rx="35" fill="url(#blue)"/>
  <text x="920" y="436" font-size="28" font-weight="900" text-anchor="middle" fill="white">통계 기반 추천</text>
</svg>